<svg width="22" height="23" viewBox="0 0 22 23" fill="none" xmlns="http://www.w3.org/2000/svg">
<path d="M13.0625 4.625C11.9316 4.625 11 5.55656 11 6.6875H6.875V14.9375H19.25V6.6875H15.125C15.125 5.55656 14.1934 4.625 13.0625 4.625ZM2.75 5.3125V6.6875H3.4375C3.81906 6.6875 4.125 6.99344 4.125 7.375V14.9375C4.125 16.4569 5.35562 17.6875 6.875 17.6875H19.25V16.3125H6.875C6.05619 16.3125 5.5 15.7563 5.5 14.9375V7.375C5.5 6.24406 4.56844 5.3125 3.4375 5.3125H2.75ZM16.8438 17.6875C16.5702 17.6875 16.3079 17.7961 16.1145 17.9895C15.9211 18.1829 15.8125 18.4452 15.8125 18.7188C15.8125 18.9923 15.9211 19.2546 16.1145 19.448C16.3079 19.6414 16.5702 19.75 16.8438 19.75C17.1173 19.75 17.3796 19.6414 17.573 19.448C17.7664 19.2546 17.875 18.9923 17.875 18.7188C17.875 18.4452 17.7664 18.1829 17.573 17.9895C17.3796 17.7961 17.1173 17.6875 16.8438 17.6875ZM8.59375 17.6875C8.32025 17.6875 8.05794 17.7961 7.86455 17.9895C7.67115 18.1829 7.5625 18.4452 7.5625 18.7188C7.5625 18.9923 7.67115 19.2546 7.86455 19.448C8.05794 19.6414 8.32025 19.75 8.59375 19.75C8.86725 19.75 9.12956 19.6414 9.32295 19.448C9.51635 19.2546 9.625 18.9923 9.625 18.7188C9.625 18.4452 9.51635 18.1829 9.32295 17.9895C9.12956 17.7961 8.86725 17.6875 8.59375 17.6875ZM13.0625 6C13.4441 6 13.75 6.30594 13.75 6.6875H12.375C12.375 6.30594 12.6809 6 13.0625 6ZM8.25 8.0625H17.875V13.5625H8.25V8.0625Z" fill="black"/>
</svg>
