<svg width="37" height="37" viewBox="0 0 37 37" fill="none" xmlns="http://www.w3.org/2000/svg">
<circle cx="18.5" cy="18.5" r="18.5" fill="#EBEBEB"/>
<path d="M24.5306 15.0303L16.5306 23.0303C16.4609 23.1002 16.3781 23.1557 16.287 23.1936C16.1958 23.2314 16.0981 23.2509 15.9993 23.2509C15.9006 23.2509 15.8029 23.2314 15.7117 23.1936C15.6206 23.1557 15.5378 23.1002 15.4681 23.0303L11.9681 19.5303C11.8983 19.4606 11.843 19.3777 11.8052 19.2866C11.7675 19.1954 11.748 19.0977 11.748 18.9991C11.748 18.9004 11.7675 18.8027 11.8052 18.7116C11.843 18.6204 11.8983 18.5376 11.9681 18.4678C12.0379 18.3981 12.1207 18.3427 12.2118 18.305C12.303 18.2672 12.4007 18.2478 12.4993 18.2478C12.598 18.2478 12.6957 18.2672 12.7869 18.305C12.878 18.3427 12.9608 18.3981 13.0306 18.4678L16 21.4372L23.4693 13.9691C23.6102 13.8282 23.8013 13.749 24.0006 13.749C24.1999 13.749 24.391 13.8282 24.5318 13.9691C24.6727 14.11 24.7519 14.3011 24.7519 14.5003C24.7519 14.6996 24.6727 14.8907 24.5318 15.0316L24.5306 15.0303Z" fill="black"/>
</svg>
