<svg width="34" height="34" viewBox="0 0 34 34" fill="none" xmlns="http://www.w3.org/2000/svg">
<rect width="34" height="34" rx="17" fill="white"/>
<mask id="mask0_58_2914" style="mask-type:alpha" maskUnits="userSpaceOnUse" x="0" y="0" width="34" height="34">
<circle cx="17" cy="17" r="17" fill="white"/>
</mask>
<g mask="url(#mask0_58_2914)">
</g>
<path d="M12.5312 9.4375C9.68706 9.4375 7.375 11.7764 7.375 14.5938C7.375 15.5769 7.8205 16.428 8.23438 17.0433C8.47819 17.4077 8.75904 17.7459 9.07244 18.0526L16.505 25.5078L16.9993 26.0021L17.4936 25.5078L24.9269 18.0526C24.9269 18.0526 26.625 16.5566 26.625 14.5938C26.625 11.7764 24.3129 9.4375 21.4688 9.4375C19.1079 9.4375 17.5878 10.8579 17 11.4574C16.4122 10.8579 14.8921 9.4375 12.5312 9.4375ZM12.5312 10.8125C14.5855 10.8125 16.4844 12.8104 16.4844 12.8104L17 13.3906L17.5156 12.8104C17.5156 12.8104 19.4145 10.8125 21.4688 10.8125C23.5608 10.8125 25.25 12.5285 25.25 14.5938C25.25 15.6546 23.9609 17.0859 23.9609 17.0859L17 24.0469L10.0391 17.0859C10.0391 17.0859 9.70631 16.7663 9.37288 16.2692C9.04013 15.7735 8.75 15.1259 8.75 14.5938C8.75 12.5285 10.4392 10.8125 12.5312 10.8125Z" fill="#8C907E"/>
</svg>
