<svg width="16" height="17" viewBox="0 0 16 17" fill="none" xmlns="http://www.w3.org/2000/svg">
<path d="M2.4694 9.96975L7.4694 4.96975C7.53908 4.89983 7.62187 4.84436 7.71304 4.8065C7.8042 4.76865 7.90194 4.74916 8.00065 4.74916C8.09936 4.74916 8.1971 4.76865 8.28827 4.8065C8.37943 4.84436 8.46222 4.89983 8.5319 4.96975L13.5319 9.96975C13.6728 10.1107 13.752 10.3017 13.752 10.501C13.752 10.7003 13.6728 10.8914 13.5319 11.0323C13.391 11.1732 13.1999 11.2523 13.0007 11.2523C12.8014 11.2523 12.6103 11.1732 12.4694 11.0323L8.00003 6.56288L3.53065 11.0329C3.38976 11.1738 3.19866 11.2529 2.9994 11.2529C2.80015 11.2529 2.60905 11.1738 2.46815 11.0329C2.32726 10.892 2.2481 10.7009 2.2481 10.5016C2.2481 10.3024 2.32726 10.1113 2.46815 9.97038L2.4694 9.96975Z" fill="black"/>
</svg>
