<svg width="247" height="42" viewBox="0 0 247 42" fill="none" xmlns="http://www.w3.org/2000/svg">
<path d="M37.2119 39.1895C37.8682 39.0254 38.4697 38.8203 39.0166 38.5742C39.568 38.3281 40.0443 38.0387 40.4453 37.7061C40.8464 37.3688 41.1585 36.986 41.3818 36.5576C41.6051 36.1292 41.7168 35.653 41.7168 35.1289C41.7168 34.6094 41.612 34.1673 41.4023 33.8027C41.1927 33.4382 40.9056 33.1396 40.541 32.9072C40.181 32.6748 39.7549 32.5039 39.2627 32.3945C38.7751 32.2852 38.2533 32.2259 37.6973 32.2168L38.5791 28.1973H39.8848C40.2721 28.1973 40.6094 28.1973 40.8965 28.1973C41.1882 28.1927 41.4388 28.1904 41.6484 28.1904C41.8581 28.1859 42.0335 28.1813 42.1748 28.1768C42.3161 28.1722 42.4346 28.1654 42.5303 28.1562H42.5576V29.6396H42.5303C42.4346 29.6123 42.3161 29.5872 42.1748 29.5645C42.0335 29.5417 41.8581 29.5212 41.6484 29.5029C41.4388 29.4847 41.1882 29.471 40.8965 29.4619C40.6094 29.4528 40.2721 29.4482 39.8848 29.4482H38.873L38.5107 30.9863C38.8799 30.9954 39.2445 31.0319 39.6045 31.0957C39.9645 31.1549 40.3086 31.2484 40.6367 31.376C40.9648 31.499 41.2679 31.6562 41.5459 31.8477C41.8285 32.0345 42.0723 32.2578 42.2773 32.5176C42.4824 32.7728 42.6419 33.0667 42.7559 33.3994C42.8743 33.7275 42.9336 34.0944 42.9336 34.5C42.9336 35.0241 42.8538 35.498 42.6943 35.9219C42.5348 36.3457 42.3184 36.7285 42.0449 37.0703C41.7715 37.4121 41.4525 37.7152 41.0879 37.9795C40.7233 38.2438 40.3337 38.4762 39.9189 38.6768C39.5088 38.8773 39.085 39.0505 38.6475 39.1963C38.21 39.3421 37.7816 39.4652 37.3623 39.5654L37.2119 39.1895ZM44.2188 37.3984C44.2188 37.2982 44.237 37.2048 44.2734 37.1182C44.3145 37.027 44.3669 36.9495 44.4307 36.8857C44.499 36.8174 44.5765 36.765 44.6631 36.7285C44.7542 36.6875 44.8499 36.667 44.9502 36.667C45.055 36.667 45.1507 36.6875 45.2373 36.7285C45.3285 36.765 45.4059 36.8174 45.4697 36.8857C45.5381 36.9495 45.5905 37.027 45.627 37.1182C45.668 37.2048 45.6885 37.2982 45.6885 37.3984C45.6885 37.6081 45.6178 37.7835 45.4766 37.9248C45.3353 38.0661 45.1598 38.1367 44.9502 38.1367C44.8499 38.1367 44.7542 38.1162 44.6631 38.0752C44.5765 38.0387 44.499 37.9886 44.4307 37.9248C44.3669 37.8564 44.3145 37.779 44.2734 37.6924C44.237 37.6012 44.2188 37.5033 44.2188 37.3984ZM48.0195 33.1533C48.0195 33.527 48.0674 33.887 48.1631 34.2334C48.2588 34.5798 48.391 34.9056 48.5596 35.2109C48.7327 35.5117 48.9401 35.7874 49.1816 36.0381C49.4277 36.2887 49.6989 36.5029 49.9951 36.6807C50.2959 36.8584 50.6172 36.9974 50.959 37.0977C51.3008 37.1934 51.6585 37.2412 52.0322 37.2412C52.4059 37.2412 52.7637 37.1934 53.1055 37.0977C53.4518 36.9974 53.7731 36.8584 54.0693 36.6807C54.3701 36.5029 54.6413 36.2887 54.8828 36.0381C55.1243 35.7874 55.3317 35.5117 55.5049 35.2109C55.6781 34.9056 55.8125 34.5798 55.9082 34.2334C56.0039 33.887 56.0518 33.527 56.0518 33.1533C56.0518 32.5928 55.9469 32.0664 55.7373 31.5742C55.5277 31.0775 55.2406 30.6445 54.876 30.2754C54.516 29.9017 54.0921 29.6077 53.6045 29.3936C53.1169 29.1748 52.5928 29.0654 52.0322 29.0654C51.4717 29.0654 50.9476 29.1748 50.46 29.3936C49.9723 29.6077 49.5462 29.9017 49.1816 30.2754C48.8216 30.6445 48.5368 31.0775 48.3271 31.5742C48.1221 32.0664 48.0195 32.5928 48.0195 33.1533ZM46.9531 33.126C46.9531 32.6611 47.0124 32.2122 47.1309 31.7793C47.2539 31.3464 47.4248 30.943 47.6436 30.5693C47.8669 30.1911 48.1335 29.847 48.4434 29.5371C48.7533 29.2272 49.0951 28.9629 49.4688 28.7441C49.847 28.5208 50.2526 28.3499 50.6855 28.2314C51.1185 28.1084 51.5674 28.0469 52.0322 28.0469C52.4971 28.0469 52.946 28.1084 53.3789 28.2314C53.8118 28.3499 54.2174 28.5208 54.5957 28.7441C54.974 28.9629 55.318 29.2272 55.6279 29.5371C55.9378 29.847 56.2021 30.1911 56.4209 30.5693C56.6442 30.943 56.8151 31.3464 56.9336 31.7793C57.0566 32.2122 57.1182 32.6611 57.1182 33.126C57.1182 33.5954 57.0566 34.0465 56.9336 34.4795C56.8151 34.9079 56.6442 35.3112 56.4209 35.6895C56.2021 36.0677 55.9378 36.4118 55.6279 36.7217C55.318 37.0316 54.974 37.2982 54.5957 37.5215C54.2174 37.7402 53.8118 37.9089 53.3789 38.0273C52.946 38.1504 52.4971 38.2119 52.0322 38.2119C51.5674 38.2119 51.1185 38.1504 50.6855 38.0273C50.2526 37.9089 49.847 37.7402 49.4688 37.5215C49.0951 37.2982 48.7533 37.0316 48.4434 36.7217C48.1335 36.4118 47.8669 36.0677 47.6436 35.6895C47.4248 35.3112 47.2539 34.9079 47.1309 34.4795C47.0124 34.0465 46.9531 33.5954 46.9531 33.126ZM59.3125 33.1533C59.3125 33.527 59.3604 33.887 59.4561 34.2334C59.5518 34.5798 59.6839 34.9056 59.8525 35.2109C60.0257 35.5117 60.2331 35.7874 60.4746 36.0381C60.7207 36.2887 60.9919 36.5029 61.2881 36.6807C61.5889 36.8584 61.9102 36.9974 62.252 37.0977C62.5938 37.1934 62.9515 37.2412 63.3252 37.2412C63.6989 37.2412 64.0566 37.1934 64.3984 37.0977C64.7448 36.9974 65.0661 36.8584 65.3623 36.6807C65.6631 36.5029 65.9342 36.2887 66.1758 36.0381C66.4173 35.7874 66.6247 35.5117 66.7979 35.2109C66.971 34.9056 67.1055 34.5798 67.2012 34.2334C67.2969 33.887 67.3447 33.527 67.3447 33.1533C67.3447 32.5928 67.2399 32.0664 67.0303 31.5742C66.8206 31.0775 66.5335 30.6445 66.1689 30.2754C65.8089 29.9017 65.3851 29.6077 64.8975 29.3936C64.4098 29.1748 63.8857 29.0654 63.3252 29.0654C62.7646 29.0654 62.2406 29.1748 61.7529 29.3936C61.2653 29.6077 60.8392 29.9017 60.4746 30.2754C60.1146 30.6445 59.8298 31.0775 59.6201 31.5742C59.415 32.0664 59.3125 32.5928 59.3125 33.1533ZM58.2461 33.126C58.2461 32.6611 58.3053 32.2122 58.4238 31.7793C58.5469 31.3464 58.7178 30.943 58.9365 30.5693C59.1598 30.1911 59.4264 29.847 59.7363 29.5371C60.0462 29.2272 60.388 28.9629 60.7617 28.7441C61.14 28.5208 61.5456 28.3499 61.9785 28.2314C62.4115 28.1084 62.8604 28.0469 63.3252 28.0469C63.79 28.0469 64.2389 28.1084 64.6719 28.2314C65.1048 28.3499 65.5104 28.5208 65.8887 28.7441C66.2669 28.9629 66.611 29.2272 66.9209 29.5371C67.2308 29.847 67.4951 30.1911 67.7139 30.5693C67.9372 30.943 68.1081 31.3464 68.2266 31.7793C68.3496 32.2122 68.4111 32.6611 68.4111 33.126C68.4111 33.5954 68.3496 34.0465 68.2266 34.4795C68.1081 34.9079 67.9372 35.3112 67.7139 35.6895C67.4951 36.0677 67.2308 36.4118 66.9209 36.7217C66.611 37.0316 66.2669 37.2982 65.8887 37.5215C65.5104 37.7402 65.1048 37.9089 64.6719 38.0273C64.2389 38.1504 63.79 38.2119 63.3252 38.2119C62.8604 38.2119 62.4115 38.1504 61.9785 38.0273C61.5456 37.9089 61.14 37.7402 60.7617 37.5215C60.388 37.2982 60.0462 37.0316 59.7363 36.7217C59.4264 36.4118 59.1598 36.0677 58.9365 35.6895C58.7178 35.3112 58.5469 34.9079 58.4238 34.4795C58.3053 34.0465 58.2461 33.5954 58.2461 33.126ZM70.6055 33.1533C70.6055 33.527 70.6533 33.887 70.749 34.2334C70.8447 34.5798 70.9769 34.9056 71.1455 35.2109C71.3187 35.5117 71.526 35.7874 71.7676 36.0381C72.0137 36.2887 72.2848 36.5029 72.5811 36.6807C72.8818 36.8584 73.2031 36.9974 73.5449 37.0977C73.8867 37.1934 74.2445 37.2412 74.6182 37.2412C74.9919 37.2412 75.3496 37.1934 75.6914 37.0977C76.0378 36.9974 76.359 36.8584 76.6553 36.6807C76.9561 36.5029 77.2272 36.2887 77.4688 36.0381C77.7103 35.7874 77.9176 35.5117 78.0908 35.2109C78.264 34.9056 78.3984 34.5798 78.4941 34.2334C78.5898 33.887 78.6377 33.527 78.6377 33.1533C78.6377 32.5928 78.5329 32.0664 78.3232 31.5742C78.1136 31.0775 77.8265 30.6445 77.4619 30.2754C77.1019 29.9017 76.6781 29.6077 76.1904 29.3936C75.7028 29.1748 75.1787 29.0654 74.6182 29.0654C74.0576 29.0654 73.5335 29.1748 73.0459 29.3936C72.5583 29.6077 72.1322 29.9017 71.7676 30.2754C71.4076 30.6445 71.1227 31.0775 70.9131 31.5742C70.708 32.0664 70.6055 32.5928 70.6055 33.1533ZM69.5391 33.126C69.5391 32.6611 69.5983 32.2122 69.7168 31.7793C69.8398 31.3464 70.0107 30.943 70.2295 30.5693C70.4528 30.1911 70.7194 29.847 71.0293 29.5371C71.3392 29.2272 71.681 28.9629 72.0547 28.7441C72.4329 28.5208 72.8385 28.3499 73.2715 28.2314C73.7044 28.1084 74.1533 28.0469 74.6182 28.0469C75.083 28.0469 75.5319 28.1084 75.9648 28.2314C76.3978 28.3499 76.8034 28.5208 77.1816 28.7441C77.5599 28.9629 77.904 29.2272 78.2139 29.5371C78.5238 29.847 78.7881 30.1911 79.0068 30.5693C79.2301 30.943 79.401 31.3464 79.5195 31.7793C79.6426 32.2122 79.7041 32.6611 79.7041 33.126C79.7041 33.5954 79.6426 34.0465 79.5195 34.4795C79.401 34.9079 79.2301 35.3112 79.0068 35.6895C78.7881 36.0677 78.5238 36.4118 78.2139 36.7217C77.904 37.0316 77.5599 37.2982 77.1816 37.5215C76.8034 37.7402 76.3978 37.9089 75.9648 38.0273C75.5319 38.1504 75.083 38.2119 74.6182 38.2119C74.1533 38.2119 73.7044 38.1504 73.2715 38.0273C72.8385 37.9089 72.4329 37.7402 72.0547 37.5215C71.681 37.2982 71.3392 37.0316 71.0293 36.7217C70.7194 36.4118 70.4528 36.0677 70.2295 35.6895C70.0107 35.3112 69.8398 34.9079 69.7168 34.4795C69.5983 34.0465 69.5391 33.5954 69.5391 33.126ZM85.8268 38V28.004H88.4588C89.6814 28.004 90.5868 28.2513 91.1748 28.746C91.7721 29.2407 92.0708 29.9593 92.0708 30.902C92.0708 31.5367 91.9261 32.0827 91.6368 32.54C91.3474 32.988 90.9181 33.3333 90.3488 33.576C89.7888 33.8187 89.0934 33.94 88.2628 33.94H87.0868V38H85.8268ZM84.6088 36.096V35.186H89.3968V36.096H84.6088ZM84.6088 33.94V32.876H87.8148V33.94H84.6088ZM88.0808 32.876C88.6501 32.876 89.1308 32.8153 89.5228 32.694C89.9241 32.5727 90.2321 32.372 90.4468 32.092C90.6614 31.812 90.7688 31.4293 90.7688 30.944C90.7688 30.3093 90.5728 29.838 90.1808 29.53C89.7888 29.222 89.1774 29.068 88.3468 29.068H87.0868V32.876H88.0808Z" fill="black" fill-opacity="0.6"/>
<path d="M164.146 37.8633C164.215 37.7767 164.322 37.6605 164.468 37.5146C164.614 37.3643 164.782 37.1888 164.974 36.9883C165.165 36.7832 165.37 36.5553 165.589 36.3047C165.808 36.054 166.026 35.7829 166.245 35.4912C166.464 35.1995 166.674 34.8896 166.874 34.5615C167.079 34.2288 167.259 33.8825 167.414 33.5225C167.569 33.1624 167.692 32.7887 167.783 32.4014C167.879 32.014 167.927 31.6175 167.927 31.2119C167.927 30.779 167.874 30.4053 167.77 30.0908C167.669 29.7718 167.53 29.5098 167.353 29.3047C167.175 29.0951 166.965 28.9401 166.724 28.8398C166.487 28.7396 166.229 28.6895 165.951 28.6895C165.605 28.6895 165.29 28.7487 165.008 28.8672C164.73 28.9811 164.486 29.1156 164.276 29.2705C164.071 29.4255 163.903 29.5804 163.771 29.7354C163.643 29.8903 163.556 30.0088 163.511 30.0908L163.415 30.0498L163.88 28.6621C164.121 28.5527 164.347 28.4593 164.557 28.3818C164.771 28.2998 164.985 28.2337 165.199 28.1836C165.418 28.1335 165.641 28.097 165.869 28.0742C166.102 28.0469 166.357 28.0332 166.635 28.0332C166.822 28.0332 167.02 28.0537 167.229 28.0947C167.439 28.1357 167.646 28.2018 167.852 28.293C168.057 28.3841 168.25 28.5026 168.433 28.6484C168.619 28.7897 168.784 28.9652 168.925 29.1748C169.071 29.3799 169.185 29.6191 169.267 29.8926C169.353 30.166 169.396 30.4782 169.396 30.8291C169.396 31.2028 169.34 31.5788 169.226 31.957C169.112 32.3307 168.961 32.6999 168.774 33.0645C168.588 33.4245 168.373 33.7777 168.132 34.124C167.89 34.4704 167.642 34.8008 167.387 35.1152C167.132 35.4297 166.879 35.7259 166.628 36.0039C166.377 36.2773 166.152 36.528 165.951 36.7559H168.583C168.752 36.7559 168.916 36.7536 169.075 36.749C169.239 36.7399 169.39 36.7285 169.526 36.7148C169.663 36.6966 169.782 36.6738 169.882 36.6465C169.987 36.6191 170.066 36.585 170.121 36.5439H170.148V38H164.146V37.8633ZM172.158 33.1533C172.158 33.527 172.206 33.887 172.302 34.2334C172.397 34.5798 172.53 34.9056 172.698 35.2109C172.871 35.5117 173.079 35.7874 173.32 36.0381C173.566 36.2887 173.838 36.5029 174.134 36.6807C174.435 36.8584 174.756 36.9974 175.098 37.0977C175.439 37.1934 175.797 37.2412 176.171 37.2412C176.545 37.2412 176.902 37.1934 177.244 37.0977C177.59 36.9974 177.912 36.8584 178.208 36.6807C178.509 36.5029 178.78 36.2887 179.021 36.0381C179.263 35.7874 179.47 35.5117 179.644 35.2109C179.817 34.9056 179.951 34.5798 180.047 34.2334C180.143 33.887 180.19 33.527 180.19 33.1533C180.19 32.5928 180.086 32.0664 179.876 31.5742C179.666 31.0775 179.379 30.6445 179.015 30.2754C178.655 29.9017 178.231 29.6077 177.743 29.3936C177.256 29.1748 176.731 29.0654 176.171 29.0654C175.61 29.0654 175.086 29.1748 174.599 29.3936C174.111 29.6077 173.685 29.9017 173.32 30.2754C172.96 30.6445 172.675 31.0775 172.466 31.5742C172.261 32.0664 172.158 32.5928 172.158 33.1533ZM171.092 33.126C171.092 32.6611 171.151 32.2122 171.27 31.7793C171.393 31.3464 171.563 30.943 171.782 30.5693C172.006 30.1911 172.272 29.847 172.582 29.5371C172.892 29.2272 173.234 28.9629 173.607 28.7441C173.986 28.5208 174.391 28.3499 174.824 28.2314C175.257 28.1084 175.706 28.0469 176.171 28.0469C176.636 28.0469 177.085 28.1084 177.518 28.2314C177.951 28.3499 178.356 28.5208 178.734 28.7441C179.113 28.9629 179.457 29.2272 179.767 29.5371C180.076 29.847 180.341 30.1911 180.56 30.5693C180.783 30.943 180.954 31.3464 181.072 31.7793C181.195 32.2122 181.257 32.6611 181.257 33.126C181.257 33.5954 181.195 34.0465 181.072 34.4795C180.954 34.9079 180.783 35.3112 180.56 35.6895C180.341 36.0677 180.076 36.4118 179.767 36.7217C179.457 37.0316 179.113 37.2982 178.734 37.5215C178.356 37.7402 177.951 37.9089 177.518 38.0273C177.085 38.1504 176.636 38.2119 176.171 38.2119C175.706 38.2119 175.257 38.1504 174.824 38.0273C174.391 37.9089 173.986 37.7402 173.607 37.5215C173.234 37.2982 172.892 37.0316 172.582 36.7217C172.272 36.4118 172.006 36.0677 171.782 35.6895C171.563 35.3112 171.393 34.9079 171.27 34.4795C171.151 34.0465 171.092 33.5954 171.092 33.126ZM182.521 37.3984C182.521 37.2982 182.54 37.2048 182.576 37.1182C182.617 37.027 182.67 36.9495 182.733 36.8857C182.802 36.8174 182.879 36.765 182.966 36.7285C183.057 36.6875 183.153 36.667 183.253 36.667C183.358 36.667 183.453 36.6875 183.54 36.7285C183.631 36.765 183.709 36.8174 183.772 36.8857C183.841 36.9495 183.893 37.027 183.93 37.1182C183.971 37.2048 183.991 37.2982 183.991 37.3984C183.991 37.6081 183.921 37.7835 183.779 37.9248C183.638 38.0661 183.463 38.1367 183.253 38.1367C183.153 38.1367 183.057 38.1162 182.966 38.0752C182.879 38.0387 182.802 37.9886 182.733 37.9248C182.67 37.8564 182.617 37.779 182.576 37.6924C182.54 37.6012 182.521 37.5033 182.521 37.3984ZM186.322 33.1533C186.322 33.527 186.37 33.887 186.466 34.2334C186.562 34.5798 186.694 34.9056 186.862 35.2109C187.035 35.5117 187.243 35.7874 187.484 36.0381C187.73 36.2887 188.002 36.5029 188.298 36.6807C188.599 36.8584 188.92 36.9974 189.262 37.0977C189.604 37.1934 189.961 37.2412 190.335 37.2412C190.709 37.2412 191.066 37.1934 191.408 37.0977C191.755 36.9974 192.076 36.8584 192.372 36.6807C192.673 36.5029 192.944 36.2887 193.186 36.0381C193.427 35.7874 193.634 35.5117 193.808 35.2109C193.981 34.9056 194.115 34.5798 194.211 34.2334C194.307 33.887 194.354 33.527 194.354 33.1533C194.354 32.5928 194.25 32.0664 194.04 31.5742C193.83 31.0775 193.543 30.6445 193.179 30.2754C192.819 29.9017 192.395 29.6077 191.907 29.3936C191.42 29.1748 190.896 29.0654 190.335 29.0654C189.774 29.0654 189.25 29.1748 188.763 29.3936C188.275 29.6077 187.849 29.9017 187.484 30.2754C187.124 30.6445 186.84 31.0775 186.63 31.5742C186.425 32.0664 186.322 32.5928 186.322 33.1533ZM185.256 33.126C185.256 32.6611 185.315 32.2122 185.434 31.7793C185.557 31.3464 185.728 30.943 185.946 30.5693C186.17 30.1911 186.436 29.847 186.746 29.5371C187.056 29.2272 187.398 28.9629 187.771 28.7441C188.15 28.5208 188.555 28.3499 188.988 28.2314C189.421 28.1084 189.87 28.0469 190.335 28.0469C190.8 28.0469 191.249 28.1084 191.682 28.2314C192.115 28.3499 192.52 28.5208 192.898 28.7441C193.277 28.9629 193.621 29.2272 193.931 29.5371C194.241 29.847 194.505 30.1911 194.724 30.5693C194.947 30.943 195.118 31.3464 195.236 31.7793C195.359 32.2122 195.421 32.6611 195.421 33.126C195.421 33.5954 195.359 34.0465 195.236 34.4795C195.118 34.9079 194.947 35.3112 194.724 35.6895C194.505 36.0677 194.241 36.4118 193.931 36.7217C193.621 37.0316 193.277 37.2982 192.898 37.5215C192.52 37.7402 192.115 37.9089 191.682 38.0273C191.249 38.1504 190.8 38.2119 190.335 38.2119C189.87 38.2119 189.421 38.1504 188.988 38.0273C188.555 37.9089 188.15 37.7402 187.771 37.5215C187.398 37.2982 187.056 37.0316 186.746 36.7217C186.436 36.4118 186.17 36.0677 185.946 35.6895C185.728 35.3112 185.557 34.9079 185.434 34.4795C185.315 34.0465 185.256 33.5954 185.256 33.126ZM197.615 33.1533C197.615 33.527 197.663 33.887 197.759 34.2334C197.854 34.5798 197.987 34.9056 198.155 35.2109C198.328 35.5117 198.536 35.7874 198.777 36.0381C199.023 36.2887 199.295 36.5029 199.591 36.6807C199.892 36.8584 200.213 36.9974 200.555 37.0977C200.896 37.1934 201.254 37.2412 201.628 37.2412C202.002 37.2412 202.359 37.1934 202.701 37.0977C203.048 36.9974 203.369 36.8584 203.665 36.6807C203.966 36.5029 204.237 36.2887 204.479 36.0381C204.72 35.7874 204.927 35.5117 205.101 35.2109C205.274 34.9056 205.408 34.5798 205.504 34.2334C205.6 33.887 205.647 33.527 205.647 33.1533C205.647 32.5928 205.543 32.0664 205.333 31.5742C205.123 31.0775 204.836 30.6445 204.472 30.2754C204.112 29.9017 203.688 29.6077 203.2 29.3936C202.713 29.1748 202.188 29.0654 201.628 29.0654C201.067 29.0654 200.543 29.1748 200.056 29.3936C199.568 29.6077 199.142 29.9017 198.777 30.2754C198.417 30.6445 198.132 31.0775 197.923 31.5742C197.718 32.0664 197.615 32.5928 197.615 33.1533ZM196.549 33.126C196.549 32.6611 196.608 32.2122 196.727 31.7793C196.85 31.3464 197.021 30.943 197.239 30.5693C197.463 30.1911 197.729 29.847 198.039 29.5371C198.349 29.2272 198.691 28.9629 199.064 28.7441C199.443 28.5208 199.848 28.3499 200.281 28.2314C200.714 28.1084 201.163 28.0469 201.628 28.0469C202.093 28.0469 202.542 28.1084 202.975 28.2314C203.408 28.3499 203.813 28.5208 204.191 28.7441C204.57 28.9629 204.914 29.2272 205.224 29.5371C205.534 29.847 205.798 30.1911 206.017 30.5693C206.24 30.943 206.411 31.3464 206.529 31.7793C206.652 32.2122 206.714 32.6611 206.714 33.126C206.714 33.5954 206.652 34.0465 206.529 34.4795C206.411 34.9079 206.24 35.3112 206.017 35.6895C205.798 36.0677 205.534 36.4118 205.224 36.7217C204.914 37.0316 204.57 37.2982 204.191 37.5215C203.813 37.7402 203.408 37.9089 202.975 38.0273C202.542 38.1504 202.093 38.2119 201.628 38.2119C201.163 38.2119 200.714 38.1504 200.281 38.0273C199.848 37.9089 199.443 37.7402 199.064 37.5215C198.691 37.2982 198.349 37.0316 198.039 36.7217C197.729 36.4118 197.463 36.0677 197.239 35.6895C197.021 35.3112 196.85 34.9079 196.727 34.4795C196.608 34.0465 196.549 33.5954 196.549 33.126ZM208.908 33.1533C208.908 33.527 208.956 33.887 209.052 34.2334C209.147 34.5798 209.28 34.9056 209.448 35.2109C209.621 35.5117 209.829 35.7874 210.07 36.0381C210.316 36.2887 210.588 36.5029 210.884 36.6807C211.185 36.8584 211.506 36.9974 211.848 37.0977C212.189 37.1934 212.547 37.2412 212.921 37.2412C213.295 37.2412 213.652 37.1934 213.994 37.0977C214.34 36.9974 214.662 36.8584 214.958 36.6807C215.259 36.5029 215.53 36.2887 215.771 36.0381C216.013 35.7874 216.22 35.5117 216.394 35.2109C216.567 34.9056 216.701 34.5798 216.797 34.2334C216.893 33.887 216.94 33.527 216.94 33.1533C216.94 32.5928 216.836 32.0664 216.626 31.5742C216.416 31.0775 216.129 30.6445 215.765 30.2754C215.405 29.9017 214.981 29.6077 214.493 29.3936C214.006 29.1748 213.481 29.0654 212.921 29.0654C212.36 29.0654 211.836 29.1748 211.349 29.3936C210.861 29.6077 210.435 29.9017 210.07 30.2754C209.71 30.6445 209.425 31.0775 209.216 31.5742C209.011 32.0664 208.908 32.5928 208.908 33.1533ZM207.842 33.126C207.842 32.6611 207.901 32.2122 208.02 31.7793C208.143 31.3464 208.313 30.943 208.532 30.5693C208.756 30.1911 209.022 29.847 209.332 29.5371C209.642 29.2272 209.984 28.9629 210.357 28.7441C210.736 28.5208 211.141 28.3499 211.574 28.2314C212.007 28.1084 212.456 28.0469 212.921 28.0469C213.386 28.0469 213.835 28.1084 214.268 28.2314C214.701 28.3499 215.106 28.5208 215.484 28.7441C215.863 28.9629 216.207 29.2272 216.517 29.5371C216.826 29.847 217.091 30.1911 217.31 30.5693C217.533 30.943 217.704 31.3464 217.822 31.7793C217.945 32.2122 218.007 32.6611 218.007 33.126C218.007 33.5954 217.945 34.0465 217.822 34.4795C217.704 34.9079 217.533 35.3112 217.31 35.6895C217.091 36.0677 216.826 36.4118 216.517 36.7217C216.207 37.0316 215.863 37.2982 215.484 37.5215C215.106 37.7402 214.701 37.9089 214.268 38.0273C213.835 38.1504 213.386 38.2119 212.921 38.2119C212.456 38.2119 212.007 38.1504 211.574 38.0273C211.141 37.9089 210.736 37.7402 210.357 37.5215C209.984 37.2982 209.642 37.0316 209.332 36.7217C209.022 36.4118 208.756 36.0677 208.532 35.6895C208.313 35.3112 208.143 34.9079 208.02 34.4795C207.901 34.0465 207.842 33.5954 207.842 33.126ZM224.129 38V28.004H226.761C227.984 28.004 228.889 28.2513 229.477 28.746C230.075 29.2407 230.373 29.9593 230.373 30.902C230.373 31.5367 230.229 32.0827 229.939 32.54C229.65 32.988 229.221 33.3333 228.651 33.576C228.091 33.8187 227.396 33.94 226.565 33.94H225.389V38H224.129ZM222.911 36.096V35.186H227.699V36.096H222.911ZM222.911 33.94V32.876H226.117V33.94H222.911ZM226.383 32.876C226.953 32.876 227.433 32.8153 227.825 32.694C228.227 32.5727 228.535 32.372 228.749 32.092C228.964 31.812 229.071 31.4293 229.071 30.944C229.071 30.3093 228.875 29.838 228.483 29.53C228.091 29.222 227.48 29.068 226.649 29.068H225.389V32.876H226.383Z" fill="black" fill-opacity="0.6"/>
<rect y="8" width="247" height="6" rx="3" fill="#F0F0F0"/>
<rect x="43.127" y="8" width="150.291" height="6" rx="3" fill="#646464"/>
<circle cx="51" cy="10" r="10" fill="#646464"/>
<circle cx="197" cy="10" r="10" fill="#646464"/>
</svg>
