<svg width="22" height="23" viewBox="0 0 22 23" fill="none" xmlns="http://www.w3.org/2000/svg">
<path d="M6.53125 3.9375C3.68706 3.9375 1.375 6.27637 1.375 9.09375C1.375 10.0769 1.8205 10.928 2.23438 11.5433C2.47819 11.9077 2.75904 12.2459 3.07244 12.5526L10.505 20.0078L10.9993 20.5021L11.4936 20.0078L18.9269 12.5526C18.9269 12.5526 20.625 11.0566 20.625 9.09375C20.625 6.27637 18.3129 3.9375 15.4688 3.9375C13.1079 3.9375 11.5878 5.35788 11 5.95738C10.4122 5.35788 8.89213 3.9375 6.53125 3.9375ZM6.53125 5.3125C8.5855 5.3125 10.4844 7.31038 10.4844 7.31038L11 7.89062L11.5156 7.31038C11.5156 7.31038 13.4145 5.3125 15.4688 5.3125C17.5608 5.3125 19.25 7.0285 19.25 9.09375C19.25 10.1546 17.9609 11.5859 17.9609 11.5859L11 18.5469L4.03906 11.5859C4.03906 11.5859 3.70631 11.2663 3.37288 10.7692C3.04013 10.2735 2.75 9.62587 2.75 9.09375C2.75 7.0285 4.43919 5.3125 6.53125 5.3125Z" fill="black"/>
</svg>
