<svg width="158" height="27" viewBox="0 0 158 27" fill="none" xmlns="http://www.w3.org/2000/svg">
<path d="M0.671875 25.9297C0.742188 25.6836 0.806641 25.3789 0.865234 25.0156C0.923828 24.6523 0.976562 24.2012 1.02344 23.6621C1.07031 23.123 1.10547 22.4844 1.12891 21.7461C1.15234 20.9961 1.16406 20.123 1.16406 19.127V7.68359C1.16406 6.6875 1.15234 5.82031 1.12891 5.08203C1.10547 4.33203 1.07031 3.6875 1.02344 3.14844C0.976562 2.59766 0.923828 2.14063 0.865234 1.77734C0.806641 1.41406 0.742188 1.10938 0.671875 0.863281V0.792969H4.87305V0.863281C4.80273 1.10938 4.73242 1.41406 4.66211 1.77734C4.60352 2.14063 4.55078 2.59766 4.50391 3.14844C4.46875 3.6875 4.43359 4.33203 4.39844 5.08203C4.375 5.82031 4.36328 6.6875 4.36328 7.68359V19.127C4.36328 20.123 4.375 20.9961 4.39844 21.7461C4.43359 22.4844 4.46875 23.123 4.50391 23.6621C4.55078 24.2012 4.60352 24.6523 4.66211 25.0156C4.73242 25.3789 4.80273 25.6836 4.87305 25.9297V26H0.671875V25.9297ZM13.2205 0.792969L31.326 20.0586V7.68359C31.326 6.6875 31.3143 5.82031 31.2909 5.08203C31.2674 4.33203 31.2323 3.6875 31.1854 3.14844C31.1385 2.59766 31.0799 2.14063 31.0096 1.77734C30.951 1.41406 30.8866 1.10938 30.8162 0.863281V0.792969H33.9452V0.863281C33.8748 1.10938 33.8104 1.41406 33.7518 1.77734C33.6932 2.14063 33.6405 2.59766 33.5936 3.14844C33.5467 3.6875 33.5116 4.33203 33.4881 5.08203C33.4647 5.82031 33.453 6.6875 33.453 7.68359V26.3516H32.8377L14.7323 7.10352V19.127C14.7323 20.123 14.744 20.9961 14.7674 21.7461C14.7909 22.4844 14.826 23.123 14.8729 23.6621C14.9198 24.2012 14.9725 24.6523 15.0311 25.0156C15.0897 25.3789 15.1541 25.6836 15.2245 25.9297V26H12.0955V25.9297C12.1659 25.6836 12.2303 25.3789 12.2889 25.0156C12.3592 24.6523 12.4178 24.2012 12.4647 23.6621C12.5116 23.123 12.5467 22.4844 12.5702 21.7461C12.5936 20.9961 12.6053 20.123 12.6053 19.127V7.68359C12.6053 6.6875 12.5936 5.82031 12.5702 5.08203C12.5467 4.33203 12.5116 3.6875 12.4647 3.14844C12.4178 2.59766 12.3592 2.14063 12.2889 1.77734C12.2303 1.41406 12.1659 1.10938 12.0955 0.863281V0.792969H13.2205ZM44.7184 19.127C44.7184 20.123 44.7302 20.9961 44.7536 21.7461C44.7887 22.4844 44.8239 23.123 44.8591 23.6621C44.9059 24.2012 44.9587 24.6523 45.0173 25.0156C45.0876 25.3789 45.1579 25.6836 45.2282 25.9297V26H41.0095V25.9297C41.0798 25.6836 41.1442 25.3789 41.2028 25.0156C41.2731 24.6523 41.3317 24.2012 41.3786 23.6621C41.4255 23.123 41.4606 22.4844 41.4841 21.7461C41.5075 20.9961 41.5192 20.123 41.5192 19.127V7.68359C41.5192 6.6875 41.5075 5.82031 41.4841 5.08203C41.4606 4.33203 41.4255 3.6875 41.3786 3.14844C41.3317 2.59766 41.2731 2.14063 41.2028 1.77734C41.1442 1.41406 41.0798 1.10938 41.0095 0.863281V0.792969C41.9821 0.792969 42.9665 0.792969 43.9626 0.792969C44.9587 0.78125 45.9255 0.775391 46.863 0.775391C47.8005 0.763672 48.6911 0.751953 49.5348 0.740234C50.3786 0.716797 51.1403 0.699219 51.82 0.6875C52.4997 0.664063 53.0739 0.640625 53.5427 0.617188C54.0114 0.582031 54.3454 0.546875 54.5446 0.511719L53.6833 2.84961C53.2966 2.74414 52.8454 2.65039 52.3298 2.56836C51.8845 2.49805 51.3395 2.43359 50.695 2.375C50.0622 2.30469 49.3298 2.26953 48.4977 2.26953C48.2165 2.26953 47.8649 2.28125 47.443 2.30469C47.0212 2.31641 46.6052 2.33398 46.195 2.35742C45.7262 2.38086 45.2341 2.4043 44.7184 2.42773V11.3047C45.9255 11.293 47.0329 11.2578 48.0407 11.1992C49.0485 11.1406 49.9157 11.082 50.6423 11.0234C51.486 10.9531 52.2477 10.8711 52.9274 10.7773L52.4001 13.3262C51.5212 13.2207 50.6305 13.1211 49.7282 13.0273C48.9548 12.9453 48.1227 12.875 47.2321 12.8164C46.3415 12.7461 45.5036 12.7109 44.7184 12.7109V19.127ZM59.939 0.792969C61.4038 0.792969 62.857 0.787109 64.2984 0.775391C65.7515 0.763672 67.0816 0.751953 68.2886 0.740234C69.4956 0.716797 70.5269 0.6875 71.3823 0.652344C72.2378 0.617188 72.8179 0.570312 73.1226 0.511719L72.2612 2.84961C71.8745 2.74414 71.4234 2.65039 70.9077 2.56836C70.4624 2.49805 69.9175 2.43359 69.273 2.375C68.6402 2.30469 67.9077 2.26953 67.0757 2.26953C66.7945 2.26953 66.4546 2.28125 66.0562 2.30469C65.6695 2.31641 65.2945 2.33398 64.9312 2.35742C64.5093 2.38086 64.0816 2.4043 63.648 2.42773V12.0254C64.855 12.0137 65.9448 11.9785 66.9175 11.9199C67.8902 11.8613 68.7163 11.8027 69.396 11.7441C70.1929 11.6738 70.896 11.5918 71.5054 11.498L70.9605 14.0469C70.1519 13.9414 69.3257 13.8418 68.482 13.748C67.7554 13.666 66.9644 13.5957 66.1089 13.5371C65.2534 13.4668 64.4331 13.4316 63.648 13.4316V24.4531C65.0308 24.4531 66.3023 24.3945 67.4624 24.2773C68.6226 24.1602 69.6362 24.0254 70.5034 23.873C71.5112 23.709 72.4312 23.5156 73.2632 23.293L72.7534 26.1406C72.6128 26.1289 72.4019 26.1172 72.1206 26.1055C71.8394 26.0938 71.523 26.082 71.1714 26.0703C70.8316 26.0586 70.4683 26.0469 70.0816 26.0352C69.7066 26.0352 69.3491 26.0293 69.0093 26.0176C68.6695 26.0176 68.3648 26.0117 68.0952 26C67.8374 26 67.6499 26 67.5327 26H59.939V25.9297C60.0093 25.6836 60.0737 25.3789 60.1323 25.0156C60.2027 24.6523 60.2612 24.2012 60.3081 23.6621C60.355 23.123 60.3902 22.4844 60.4136 21.7461C60.437 20.9961 60.4487 20.123 60.4487 19.127V7.68359C60.4487 6.6875 60.437 5.82031 60.4136 5.08203C60.3902 4.33203 60.355 3.6875 60.3081 3.14844C60.2612 2.59766 60.2027 2.14063 60.1323 1.77734C60.0737 1.41406 60.0093 1.10938 59.939 0.863281V0.792969ZM83.4564 19.127C83.4564 20.123 83.4681 20.9961 83.4916 21.7461C83.5267 22.4844 83.5619 23.123 83.597 23.6621C83.6439 24.2012 83.6966 24.6523 83.7552 25.0156C83.8255 25.3789 83.8959 25.6836 83.9662 25.9297V26H79.7474V25.9297C79.8177 25.6836 79.8822 25.3789 79.9408 25.0156C80.0111 24.6523 80.0638 24.2012 80.099 23.6621C80.1459 23.123 80.181 22.4844 80.2045 21.7461C80.2396 21.0078 80.2572 20.1348 80.2572 19.127V7.68359C80.2572 6.6875 80.2396 5.82031 80.2045 5.08203C80.181 4.33203 80.1459 3.6875 80.099 3.14844C80.0638 2.60937 80.0111 2.1582 79.9408 1.79492C79.8822 1.41992 79.8177 1.10938 79.7474 0.863281V0.792969L80.4857 0.863281C80.7084 0.886719 80.9545 0.904297 81.224 0.916016C81.5052 0.916016 81.7923 0.916016 82.0853 0.916016C82.5423 0.916016 83.1576 0.863281 83.931 0.757812C84.7162 0.640625 85.7123 0.582031 86.9193 0.582031C88.0443 0.582031 89.0814 0.734375 90.0306 1.03906C90.9916 1.34375 91.8236 1.78906 92.5267 2.375C93.2298 2.96094 93.7748 3.68164 94.1615 4.53711C94.5599 5.38086 94.7591 6.3418 94.7591 7.41992C94.7591 8.26367 94.6478 9.04883 94.4252 9.77539C94.2142 10.4902 93.9095 11.1406 93.5111 11.7266C93.1244 12.3125 92.6556 12.834 92.1048 13.291C91.5541 13.7363 90.9388 14.1113 90.2591 14.416L96.4291 23.082C96.7337 23.5156 97.015 23.8906 97.2728 24.207C97.5423 24.5234 97.7943 24.7988 98.0287 25.0332C98.2748 25.2559 98.5091 25.4434 98.7318 25.5957C98.9545 25.7363 99.183 25.8477 99.4173 25.9297V26H94.3373C94.3021 25.7773 94.1849 25.4844 93.9857 25.1211C93.7982 24.7461 93.5755 24.377 93.3177 24.0137L87.0951 15.2422C86.8255 15.2656 86.556 15.2891 86.2865 15.3125C86.017 15.3242 85.7416 15.3301 85.4603 15.3301C85.1322 15.3301 84.7982 15.3184 84.4584 15.2949C84.1302 15.2715 83.7962 15.2305 83.4564 15.1719V19.127ZM83.4564 13.8008C83.7728 13.8711 84.0951 13.9238 84.4232 13.959C84.7513 13.9824 85.0677 13.9941 85.3724 13.9941C86.2513 13.9941 87.0541 13.8652 87.7806 13.6074C88.5072 13.3379 89.1224 12.9336 89.6263 12.3945C90.142 11.8555 90.5404 11.1875 90.8216 10.3906C91.1029 9.58203 91.2435 8.63867 91.2435 7.56055C91.2435 6.68164 91.1439 5.88477 90.9447 5.16992C90.7455 4.45508 90.4466 3.85156 90.0482 3.35938C89.6615 2.85547 89.1693 2.46875 88.5716 2.19922C87.974 1.91797 87.2767 1.77734 86.4798 1.77734C85.6712 1.77734 85.0267 1.81836 84.5462 1.90039C84.0658 1.98242 83.7025 2.07031 83.4564 2.16406V13.8008ZM104.161 0.792969L122.267 20.0586V7.68359C122.267 6.6875 122.255 5.82031 122.232 5.08203C122.208 4.33203 122.173 3.6875 122.126 3.14844C122.079 2.59766 122.021 2.14063 121.95 1.77734C121.892 1.41406 121.827 1.10938 121.757 0.863281V0.792969H124.886V0.863281C124.816 1.10938 124.751 1.41406 124.693 1.77734C124.634 2.14063 124.581 2.59766 124.534 3.14844C124.488 3.6875 124.452 4.33203 124.429 5.08203C124.405 5.82031 124.394 6.6875 124.394 7.68359V26.3516H123.779L105.673 7.10352V19.127C105.673 20.123 105.685 20.9961 105.708 21.7461C105.732 22.4844 105.767 23.123 105.814 23.6621C105.861 24.2012 105.913 24.6523 105.972 25.0156C106.03 25.3789 106.095 25.6836 106.165 25.9297V26H103.036V25.9297C103.107 25.6836 103.171 25.3789 103.23 25.0156C103.3 24.6523 103.359 24.2012 103.405 23.6621C103.452 23.123 103.488 22.4844 103.511 21.7461C103.534 20.9961 103.546 20.123 103.546 19.127V7.68359C103.546 6.6875 103.534 5.82031 103.511 5.08203C103.488 4.33203 103.452 3.6875 103.405 3.14844C103.359 2.59766 103.3 2.14063 103.23 1.77734C103.171 1.41406 103.107 1.10938 103.036 0.863281V0.792969H104.161ZM143.446 0.371094C145.403 0.371094 147.208 0.693359 148.86 1.33789C150.524 1.9707 151.96 2.86719 153.167 4.02734C154.374 5.17578 155.317 6.55859 155.997 8.17578C156.677 9.79297 157.017 11.5801 157.017 13.5371C157.017 14.6504 156.888 15.7461 156.63 16.8242C156.372 17.9023 155.991 18.9219 155.487 19.8828C154.995 20.8438 154.386 21.7344 153.659 22.5547C152.933 23.3633 152.101 24.0664 151.163 24.6641C150.237 25.25 149.212 25.707 148.087 26.0352C146.962 26.375 145.749 26.5449 144.448 26.5449C142.491 26.5449 140.681 26.2344 139.017 25.6133C137.364 24.9805 135.935 24.0898 134.728 22.9414C133.521 21.793 132.577 20.416 131.898 18.8105C131.218 17.1934 130.878 15.4004 130.878 13.4316C130.878 12.3184 131.007 11.2227 131.265 10.1445C131.523 9.06641 131.898 8.04102 132.39 7.06836C132.894 6.0957 133.503 5.20508 134.218 4.39648C134.944 3.57617 135.771 2.86719 136.696 2.26953C137.634 1.67188 138.665 1.20898 139.79 0.880859C140.927 0.541016 142.146 0.371094 143.446 0.371094ZM144.448 24.9629C145.749 24.9629 146.939 24.7285 148.017 24.2598C149.095 23.791 150.021 23.1113 150.794 22.2207C151.579 21.3301 152.189 20.2461 152.622 18.9688C153.056 17.6797 153.273 16.2207 153.273 14.5918C153.273 12.7871 153.062 11.1172 152.64 9.58203C152.23 8.03516 151.614 6.69922 150.794 5.57422C149.974 4.4375 148.948 3.55273 147.718 2.91992C146.499 2.27539 145.075 1.95312 143.446 1.95312C142.146 1.95312 140.956 2.1875 139.878 2.65625C138.8 3.11328 137.868 3.78125 137.083 4.66016C136.31 5.53906 135.706 6.61719 135.273 7.89453C134.839 9.17188 134.622 10.625 134.622 12.2539C134.622 14.0469 134.827 15.7227 135.237 17.2812C135.648 18.8281 136.263 20.1699 137.083 21.3066C137.903 22.4434 138.929 23.3398 140.159 23.9961C141.39 24.6406 142.819 24.9629 144.448 24.9629Z" fill="#111111"/>
</svg>
