<svg width="22" height="23" viewBox="0 0 22 23" fill="none" xmlns="http://www.w3.org/2000/svg">
<path d="M12.7789 3.5C9.34986 3.5 6.55784 6.29191 6.55784 9.72084C6.55784 11.2107 7.08041 12.5762 7.95758 13.6481L3 18.6042L3.89521 19.5L8.85217 14.5426C9.95924 15.4502 11.3474 15.9448 12.7789 15.9417C16.208 15.9417 19 13.1498 19 9.72084C19 6.29191 16.208 3.5 12.7789 3.5ZM12.7789 4.74417C15.5349 4.74417 17.7558 6.96501 17.7558 9.72084C17.7558 12.4767 15.5349 14.6975 12.7789 14.6975C10.023 14.6975 7.80205 12.4767 7.80205 9.72084C7.80205 6.96501 10.023 4.74417 12.7789 4.74417Z" fill="#111111"/>
</svg>
